<?xml version="1.0" encoding="UTF-8" standalone="no"?>
<!-- Created with Inkscape (http://www.inkscape.org/) -->

<svg
   xmlns:dc="http://purl.org/dc/elements/1.1/"
   xmlns:cc="http://creativecommons.org/ns#"
   xmlns:rdf="http://www.w3.org/1999/02/22-rdf-syntax-ns#"
   xmlns:svg="http://www.w3.org/2000/svg"
   xmlns="http://www.w3.org/2000/svg"
   xmlns:sodipodi="http://sodipodi.sourceforge.net/DTD/sodipodi-0.dtd"
   xmlns:inkscape="http://www.inkscape.org/namespaces/inkscape"
   width="32.219223mm"
   height="10.803991mm"
   viewBox="0 0 32.219223 10.803991"
   version="1.1"
   id="svg8"
   sodipodi:docname="pi-logo-white.svg"
   inkscape:version="0.92.4 (5da689c313, 2019-01-14)">
  <defs
     id="defs2" />
  <sodipodi:namedview
     id="base"
     pagecolor="#ffffff"
     bordercolor="#666666"
     borderopacity="1.0"
     inkscape:pageopacity="0.0"
     inkscape:pageshadow="2"
     inkscape:zoom="1.0898504"
     inkscape:cx="444.12651"
     inkscape:cy="-58.218886"
     inkscape:document-units="mm"
     inkscape:current-layer="layer1"
     showgrid="false"
     inkscape:window-width="1920"
     inkscape:window-height="1001"
     inkscape:window-x="-9"
     inkscape:window-y="-9"
     inkscape:window-maximized="1"
     inkscape:pagecheckerboard="false"
     fit-margin-top="0"
     fit-margin-left="0"
     fit-margin-right="0"
     fit-margin-bottom="0" />
  <metadata
     id="metadata5">
    <rdf:RDF>
      <cc:Work
         rdf:about="">
        <dc:format>image/svg+xml</dc:format>
        <dc:type
           rdf:resource="http://purl.org/dc/dcmitype/StillImage" />
        <dc:title></dc:title>
      </cc:Work>
    </rdf:RDF>
  </metadata>
  <g
     inkscape:label="Layer 1"
     inkscape:groupmode="layer"
     id="layer1"
     transform="translate(-7.3494222,-4.6684488)">
    <text
       xml:space="preserve"
       style="font-style:normal;font-weight:normal;font-size:16.93333244px;line-height:1.25;font-family:sans-serif;letter-spacing:0px;word-spacing:0px;fill:#000000;fill-opacity:1;stroke:none;stroke-width:0.26458332"
       x="20.847023"
       y="30.799551"
       id="text817"><tspan
         sodipodi:role="line"
         id="tspan815"
         x="20.847023"
         y="46.248344"
         style="stroke-width:0.26458332" /></text>
    <path
       style="font-style:italic;font-variant:normal;font-weight:bold;font-stretch:normal;font-size:64px;line-height:1.25;font-family:Calibri;-inkscape-font-specification:'Calibri, Bold Italic';font-variant-ligatures:normal;font-variant-caps:normal;font-variant-numeric:normal;font-feature-settings:normal;text-align:start;letter-spacing:0px;word-spacing:0px;writing-mode:lr-tb;text-anchor:start;fill:#ffffff;fill-opacity:1;stroke:none"
       d="m 69.058594,17.644531 c -0.729167,0 -1.364584,0.21875 -1.90625,0.65625 -0.520834,0.416667 -0.864584,1.0625 -1.03125,1.9375 l -7.34375,36.78125 c -0.0625,0.208334 -0.05208,0.395834 0.03125,0.5625 0.104166,0.145834 0.302083,0.270834 0.59375,0.375 0.291666,0.104167 0.6875,0.177084 1.1875,0.21875 0.520833,0.0625 1.1875,0.09375 2,0.09375 0.791666,0 1.458333,-0.03125 2,-0.09375 0.541666,-0.04167 0.979166,-0.114583 1.3125,-0.21875 0.354166,-0.104166 0.614583,-0.229166 0.78125,-0.375 0.166666,-0.166666 0.270833,-0.354166 0.3125,-0.5625 l 6.5,-32.53125 h 15.0625 l -6.5,32.53125 c -0.0625,0.208334 -0.04167,0.395834 0.0625,0.5625 0.125,0.145834 0.333333,0.270834 0.625,0.375 0.291666,0.104167 0.697916,0.177084 1.21875,0.21875 0.520833,0.0625 1.177083,0.09375 1.96875,0.09375 0.8125,0 1.479166,-0.03125 2,-0.09375 0.520833,-0.04167 0.947916,-0.114583 1.28125,-0.21875 0.333333,-0.104166 0.572916,-0.229166 0.71875,-0.375 0.166666,-0.166666 0.270833,-0.354166 0.3125,-0.5625 l 7.34375,-36.78125 c 0.1875,-0.875 0.114583,-1.520833 -0.21875,-1.9375 -0.333334,-0.4375 -0.875,-0.65625 -1.625,-0.65625 z m 46.492186,0.02148 c -0.79167,0 -1.45833,0.03125 -2,0.09375 -0.52083,0.04167 -0.95833,0.114583 -1.3125,0.21875 -0.33333,0.104166 -0.59375,0.239583 -0.78125,0.40625 -0.16667,0.166666 -0.26042,0.354166 -0.28125,0.5625 l -7.65625,38.25 c -0.0625,0.208333 -0.0417,0.395833 0.0625,0.5625 0.10417,0.166666 0.30208,0.302083 0.59375,0.40625 0.29167,0.104166 0.6875,0.177083 1.1875,0.21875 0.52083,0.0625 1.1875,0.09375 2,0.09375 0.79167,0 1.45833,-0.03125 2,-0.09375 0.54167,-0.04167 0.97917,-0.114584 1.3125,-0.21875 0.35417,-0.104167 0.61458,-0.239584 0.78125,-0.40625 0.16667,-0.166667 0.27083,-0.354167 0.3125,-0.5625 l 7.625,-38.25 c 0.0417,-0.208334 0.0104,-0.395834 -0.0937,-0.5625 -0.0833,-0.166667 -0.28125,-0.302084 -0.59375,-0.40625 -0.29167,-0.104167 -0.69792,-0.177084 -1.21875,-0.21875 -0.5,-0.0625 -1.14583,-0.09375 -1.9375,-0.09375 z m -59.070311,6.916015 c -0.177084,0.01042 -0.390625,0.07292 -0.640625,0.1875 l -26.0625,11.78125 c -0.354167,0.145834 -0.65625,0.447917 -0.90625,0.90625 -0.25,0.458334 -0.458334,0.96875 -0.625,1.53125 -0.166667,0.541667 -0.291667,1.09375 -0.375,1.65625 -0.0625,0.5625 -0.09375,1.03125 -0.09375,1.40625 0,0.4375 0.05208,0.770834 0.15625,1 0.125,0.229167 0.291666,0.395834 0.5,0.5 l 21.53125,11.90625 c 0.25,0.145834 0.489583,0.15625 0.71875,0.03125 0.229166,-0.125 0.427083,-0.34375 0.59375,-0.65625 0.1875,-0.3125 0.34375,-0.677083 0.46875,-1.09375 0.125,-0.416666 0.229166,-0.84375 0.3125,-1.28125 0.08333,-0.458333 0.145833,-0.895833 0.1875,-1.3125 0.04167,-0.416666 0.0625,-0.770833 0.0625,-1.0625 0,-0.708333 -0.322917,-1.229166 -0.96875,-1.5625 l -16,-8.3125 19.46875,-8.21875 c 0.354166,-0.145833 0.677083,-0.447916 0.96875,-0.90625 0.291666,-0.458333 0.541666,-0.979166 0.75,-1.5625 0.229166,-0.604166 0.40625,-1.229166 0.53125,-1.875 0.125,-0.666666 0.1875,-1.270833 0.1875,-1.8125 0,-0.583333 -0.114584,-0.958333 -0.34375,-1.125 -0.104167,-0.09375 -0.244792,-0.135416 -0.421875,-0.125 z m 70.492191,0.16211 c -0.125,0 -0.2448,0.03646 -0.35938,0.109375 -0.20833,0.125 -0.40625,0.34375 -0.59375,0.65625 -0.16667,0.291666 -0.32292,0.65625 -0.46875,1.09375 -0.125,0.416666 -0.22917,0.854166 -0.3125,1.3125 -0.0833,0.4375 -0.14583,0.864583 -0.1875,1.28125 -0.0417,0.416666 -0.0625,0.770833 -0.0625,1.0625 0,0.708333 0.33333,1.229166 1,1.5625 l 16,8.3125 -19.46875,8.21875 c -0.35417,0.145833 -0.6875,0.447916 -1,0.90625 -0.29167,0.458333 -0.55208,0.989583 -0.78125,1.59375 -0.20833,0.583333 -0.375,1.208333 -0.5,1.875 -0.10417,0.645833 -0.15625,1.239583 -0.15625,1.78125 0,0.5625 0.10417,0.9375 0.3125,1.125 0.20833,0.1875 0.5625,0.166666 1.0625,-0.0625 l 26.0625,-11.78125 c 0.35417,-0.145834 0.65625,-0.447917 0.90625,-0.90625 0.27083,-0.458334 0.48958,-0.958334 0.65625,-1.5 0.16667,-0.5625 0.28125,-1.125 0.34375,-1.6875 0.0833,-0.583334 0.125,-1.052084 0.125,-1.40625 0,-0.4375 -0.0625,-0.760417 -0.1875,-0.96875 -0.10417,-0.229167 -0.26042,-0.40625 -0.46875,-0.53125 l -21.53125,-11.9375 c -0.13542,-0.07292 -0.26562,-0.109375 -0.39062,-0.109375 z"
       transform="scale(0.26458333)"
       id="flowRoot819"
       inkscape:connector-curvature="0" />
  </g>
</svg>
